# xmcd
#
# Track frame offsets: 
#        150
#        19458
#        33839
#        46666
#        59029
#        74597
#        86261
#        101465
#        116894
#        131404
#        150826
#        156612
#        183569
#        197388
#        215881
#        231941
#        253502
#        269787
#        285402
#        304710
#
# Disc length: 4337 seconds
#
# Revision: 0
# Processed by: cddbd v1.5PL3 Copyright (c) Steve Scherf et al.
# Submitted via: ExactAudioCopy v0.95a5
#
DISCID=2310ef14
DTITLE=Андрей Макаревич - Тонкий шрам на любимой попе
DYEAR=2003
DGENRE=Blues
TTITLE0=Соседка
TTITLE1=Брассенс и Бернес
TTITLE2=Вонючий Скунс
TTITLE3=Универсальная песня на День Рождения
TTITLE4=Песня о всеобщей утрате девственности
TTITLE5=Песня про Машу и ее Сучку
TTITLE6=Печальный Шура
TTITLE7=Бабушка Ребекка
TTITLE8=Песня про отца
TTITLE9=Тонкий шрам на любимой попе
TTITLE10=В тот день, когда закончится дорога
TTITLE11=Тем, кто ушел
TTITLE12=Пустим обещаниям...
TTITLE13=Песенка про счастье
TTITLE14=Нашим лодкам...
TTITLE15=Наливай
TTITLE16=Начало
TTITLE17=Музыкант
TTITLE18=Море любви
TTITLE19=Через стекло
EXTD=
EXTT0=
EXTT1=
EXTT2=
EXTT3=
EXTT4=
EXTT5=
EXTT6=
EXTT7=
EXTT8=
EXTT9=
EXTT10=
EXTT11=
EXTT12=
EXTT13=
EXTT14=
EXTT15=
EXTT16=
EXTT17=
EXTT18=
EXTT19=
PLAYORDER=
